<svg xmlns="http://www.w3.org/2000/svg" width="123.954" height="104.742" viewBox="0 0 123.954 104.742"><defs><linearGradient id="a" x1=".426" x2=".693" y1=".182" y2=".83" gradientUnits="objectBoundingBox"><stop offset="0" stop-color="#ed55eb"/><stop offset=".374" stop-color="#17e0d8"/><stop offset=".601" stop-color="#00ffc2"/><stop offset="1" stop-color="#ffec06"/></linearGradient></defs><g fill-rule="evenodd"><path fill="#171717" stroke="#fff" d="M61.977.5A52.3 52.3 0 01103.7 21.143h.946c10.438 1.979 18.8 12.6 18.8 24.82 0 9.273-5.157 16.954-11.065 20.117a52.376 52.376 0 01-100.826 0C5.657 62.909.5 55.228.5 45.955c0-12.217 8.365-22.841 18.8-24.82q.481 0 .949.008A52.3 52.3 0 0161.977.5z"/><path fill="url(#a)" d="M31.212 14.25a42.588 42.588 0 0138.423 0 35 35 0 0119.211 31.237v9.392a24.678 24.678 0 01-19.211 24.064 86.731 86.731 0 01-38.423 0A24.678 24.678 0 0112 54.878v-9.391A35 35 0 0131.212 14.25z" transform="translate(11.554 9.408)"/></g></svg>